<mxfile host="app.diagrams.net" agent="Mozilla/5.0 (Windows NT 10.0; Win64; x64) AppleWebKit/537.36 (KHTML, like Gecko) Chrome/134.0.0.0 Safari/537.36" version="26.1.1">
  <diagram name="Página-1" id="YrHWLLRZg41H_uWT5WWp">
    <mxGraphModel dx="1728" dy="650" grid="1" gridSize="10" guides="1" tooltips="1" connect="1" arrows="1" fold="1" page="1" pageScale="1" pageWidth="1200" pageHeight="1600" math="0" shadow="0">
      <root>
        <mxCell id="0" />
        <mxCell id="1" parent="0" />
        <mxCell id="YWVrHOccRznsvWWrB8TM-1" value="GFO&lt;div&gt;Módulo Receita&lt;/div&gt;" style="ellipse;whiteSpace=wrap;html=1;aspect=fixed;" vertex="1" parent="1">
          <mxGeometry x="720" y="310" width="90" height="90" as="geometry" />
        </mxCell>
        <mxCell id="YWVrHOccRznsvWWrB8TM-8" style="edgeStyle=orthogonalEdgeStyle;rounded=0;orthogonalLoop=1;jettySize=auto;html=1;entryX=-0.01;entryY=0.166;entryDx=0;entryDy=0;entryPerimeter=0;" edge="1" parent="1" source="YWVrHOccRznsvWWrB8TM-2" target="YWVrHOccRznsvWWrB8TM-16">
          <mxGeometry relative="1" as="geometry">
            <mxPoint x="424.6399999999999" y="207.76999999999998" as="targetPoint" />
          </mxGeometry>
        </mxCell>
        <mxCell id="YWVrHOccRznsvWWrB8TM-9" value="1. solicita documento de arrecadação." style="edgeLabel;html=1;align=center;verticalAlign=middle;resizable=0;points=[];" vertex="1" connectable="0" parent="YWVrHOccRznsvWWrB8TM-8">
          <mxGeometry x="0.0451" relative="1" as="geometry">
            <mxPoint x="-6" y="-10" as="offset" />
          </mxGeometry>
        </mxCell>
        <mxCell id="YWVrHOccRznsvWWrB8TM-2" value="Sistema de Origem" style="shape=umlActor;verticalLabelPosition=bottom;verticalAlign=top;html=1;outlineConnect=0;" vertex="1" parent="1">
          <mxGeometry x="70" y="170" width="30" height="60" as="geometry" />
        </mxCell>
        <mxCell id="YWVrHOccRznsvWWrB8TM-4" value="Transações Bancárias" style="rounded=1;whiteSpace=wrap;html=1;" vertex="1" parent="1">
          <mxGeometry x="70" y="460" width="120" height="60" as="geometry" />
        </mxCell>
        <mxCell id="YWVrHOccRznsvWWrB8TM-10" value="" style="endArrow=classic;html=1;rounded=0;entryX=0;entryY=0;entryDx=0;entryDy=0;exitX=1;exitY=0.133;exitDx=0;exitDy=0;exitPerimeter=0;" edge="1" parent="1" source="YWVrHOccRznsvWWrB8TM-16" target="YWVrHOccRznsvWWrB8TM-1">
          <mxGeometry width="50" height="50" relative="1" as="geometry">
            <mxPoint x="512.6399999999999" y="204.05999999999995" as="sourcePoint" />
            <mxPoint x="620" y="380" as="targetPoint" />
          </mxGeometry>
        </mxCell>
        <mxCell id="YWVrHOccRznsvWWrB8TM-11" value="2. requisição enviada para o GFO" style="edgeLabel;html=1;align=center;verticalAlign=middle;resizable=0;points=[];rotation=30;" vertex="1" connectable="0" parent="YWVrHOccRznsvWWrB8TM-10">
          <mxGeometry x="-0.3111" y="3" relative="1" as="geometry">
            <mxPoint x="36" y="2" as="offset" />
          </mxGeometry>
        </mxCell>
        <mxCell id="YWVrHOccRznsvWWrB8TM-12" value="BD&lt;div&gt;Módulo Receita&lt;/div&gt;" style="shape=cylinder3;whiteSpace=wrap;html=1;boundedLbl=1;backgroundOutline=1;size=15;" vertex="1" parent="1">
          <mxGeometry x="1020" y="320" width="90" height="110" as="geometry" />
        </mxCell>
        <mxCell id="YWVrHOccRznsvWWrB8TM-13" style="edgeStyle=orthogonalEdgeStyle;rounded=0;orthogonalLoop=1;jettySize=auto;html=1;entryX=0;entryY=0;entryDx=0;entryDy=27.5;entryPerimeter=0;" edge="1" parent="1" source="YWVrHOccRznsvWWrB8TM-1" target="YWVrHOccRznsvWWrB8TM-12">
          <mxGeometry relative="1" as="geometry" />
        </mxCell>
        <mxCell id="YWVrHOccRznsvWWrB8TM-14" value="3. Grava dados" style="edgeLabel;html=1;align=center;verticalAlign=middle;resizable=0;points=[];" vertex="1" connectable="0" parent="YWVrHOccRznsvWWrB8TM-13">
          <mxGeometry x="-0.1816" y="4" relative="1" as="geometry">
            <mxPoint x="11" y="-21" as="offset" />
          </mxGeometry>
        </mxCell>
        <mxCell id="YWVrHOccRznsvWWrB8TM-16" value="&lt;b&gt;&lt;font style=&quot;font-size: 15px;&quot;&gt;MG API&lt;/font&gt;&lt;/b&gt;" style="rounded=1;whiteSpace=wrap;html=1;" vertex="1" parent="1">
          <mxGeometry x="340" y="90" width="250" height="610" as="geometry" />
        </mxCell>
        <mxCell id="YWVrHOccRznsvWWrB8TM-15" value="CACHE" style="whiteSpace=wrap;html=1;aspect=fixed;" vertex="1" parent="1">
          <mxGeometry x="465" y="630" width="50" height="50" as="geometry" />
        </mxCell>
        <mxCell id="YWVrHOccRznsvWWrB8TM-17" style="edgeStyle=orthogonalEdgeStyle;rounded=0;orthogonalLoop=1;jettySize=auto;html=1;entryX=1;entryY=0.629;entryDx=0;entryDy=0;entryPerimeter=0;curved=1;exitX=0.244;exitY=0.933;exitDx=0;exitDy=0;exitPerimeter=0;" edge="1" parent="1" source="YWVrHOccRznsvWWrB8TM-1" target="YWVrHOccRznsvWWrB8TM-16">
          <mxGeometry relative="1" as="geometry" />
        </mxCell>
        <mxCell id="YWVrHOccRznsvWWrB8TM-25" value="4. Solicita Termos Vigentes" style="edgeLabel;html=1;align=center;verticalAlign=middle;resizable=0;points=[];" vertex="1" connectable="0" parent="YWVrHOccRznsvWWrB8TM-17">
          <mxGeometry x="-0.655" y="3" relative="1" as="geometry">
            <mxPoint x="-22" y="83" as="offset" />
          </mxGeometry>
        </mxCell>
        <mxCell id="YWVrHOccRznsvWWrB8TM-20" style="edgeStyle=orthogonalEdgeStyle;rounded=0;orthogonalLoop=1;jettySize=auto;html=1;" edge="1" parent="1" source="YWVrHOccRznsvWWrB8TM-18" target="YWVrHOccRznsvWWrB8TM-15">
          <mxGeometry relative="1" as="geometry" />
        </mxCell>
        <mxCell id="YWVrHOccRznsvWWrB8TM-21" value="Sim, busca no cache." style="edgeLabel;html=1;align=center;verticalAlign=middle;resizable=0;points=[];" vertex="1" connectable="0" parent="YWVrHOccRznsvWWrB8TM-20">
          <mxGeometry x="-0.2069" y="3" relative="1" as="geometry">
            <mxPoint as="offset" />
          </mxGeometry>
        </mxCell>
        <mxCell id="YWVrHOccRznsvWWrB8TM-18" value="está no&amp;nbsp;&lt;div&gt;cache?&lt;/div&gt;" style="rhombus;whiteSpace=wrap;html=1;" vertex="1" parent="1">
          <mxGeometry x="450" y="490" width="80" height="80" as="geometry" />
        </mxCell>
        <mxCell id="YWVrHOccRznsvWWrB8TM-19" value="" style="endArrow=classic;html=1;rounded=0;exitX=0.995;exitY=0.63;exitDx=0;exitDy=0;exitPerimeter=0;entryX=1;entryY=0.5;entryDx=0;entryDy=0;" edge="1" parent="1" source="YWVrHOccRznsvWWrB8TM-16" target="YWVrHOccRznsvWWrB8TM-18">
          <mxGeometry width="50" height="50" relative="1" as="geometry">
            <mxPoint x="570" y="430" as="sourcePoint" />
            <mxPoint x="620" y="380" as="targetPoint" />
          </mxGeometry>
        </mxCell>
        <mxCell id="YWVrHOccRznsvWWrB8TM-22" style="edgeStyle=orthogonalEdgeStyle;rounded=0;orthogonalLoop=1;jettySize=auto;html=1;entryX=0;entryY=0.721;entryDx=0;entryDy=0;entryPerimeter=0;exitX=0;exitY=0.5;exitDx=0;exitDy=0;" edge="1" parent="1" source="YWVrHOccRznsvWWrB8TM-18" target="YWVrHOccRznsvWWrB8TM-16">
          <mxGeometry relative="1" as="geometry">
            <Array as="points">
              <mxPoint x="382" y="530" />
            </Array>
          </mxGeometry>
        </mxCell>
        <mxCell id="YWVrHOccRznsvWWrB8TM-24" value="Não, busca no&amp;nbsp;&lt;div&gt;Transações Bancárias&lt;/div&gt;" style="edgeLabel;html=1;align=center;verticalAlign=middle;resizable=0;points=[];" vertex="1" connectable="0" parent="YWVrHOccRznsvWWrB8TM-22">
          <mxGeometry x="0.1094" y="3" relative="1" as="geometry">
            <mxPoint x="11" y="-23" as="offset" />
          </mxGeometry>
        </mxCell>
        <mxCell id="YWVrHOccRznsvWWrB8TM-23" value="" style="endArrow=classic;html=1;rounded=0;exitX=0.002;exitY=0.721;exitDx=0;exitDy=0;exitPerimeter=0;entryX=1;entryY=0.5;entryDx=0;entryDy=0;" edge="1" parent="1" source="YWVrHOccRznsvWWrB8TM-16" target="YWVrHOccRznsvWWrB8TM-4">
          <mxGeometry width="50" height="50" relative="1" as="geometry">
            <mxPoint x="660" y="550" as="sourcePoint" />
            <mxPoint x="710" y="500" as="targetPoint" />
          </mxGeometry>
        </mxCell>
      </root>
    </mxGraphModel>
  </diagram>
</mxfile>
